<svg aria-hidden="true" style="position: absolute; width: 0; height: 0; overflow: hidden;" version="1.1" xmlns="http://www.w3.org/2000/svg" xmlns:xlink="http://www.w3.org/1999/xlink">
<defs>
<symbol id="icon-add-img" viewBox="0 0 32 32">
<path fill="#000" style="fill: var(--color1, #bbb)" d="M18.549 12.293h11.629v5.013h-11.627v13.179h-5.333v-13.179h-11.627v-5.013h11.629v-12.173h5.328v12.173z"></path>
</symbol>
<symbol id="icon-arrow_drop_down" viewBox="0 0 32 32">
<path d="M9.333 13.333l6.667 6.667 6.667-6.667h-13.333z"></path>
</symbol>
<symbol id="icon-clear-filter" viewBox="0 0 32 32">
<path d="M6.667 16h-5.333l6.667 6.667 6.667-6.667h-5.333c0-4.413 3.587-8 8-8s8 3.587 8 8-3.587 8-8 8v2.667c5.893 0 10.667-4.773 10.667-10.667s-4.773-10.667-10.667-10.667-10.667 4.773-10.667 10.667z"></path>
</symbol>
<symbol id="icon-close_icon" viewBox="0 0 32 32">
<path d="M25.333 8.547l-1.88-1.88-7.453 7.453-7.453-7.453-1.88 1.88 7.453 7.453-7.453 7.453 1.88 1.88 7.453-7.453 7.453 7.453 1.88-1.88-7.453-7.453 7.453-7.453z"></path>
</symbol>
<symbol id="icon-copyright" viewBox="0 0 32 32">
<path d="M13.44 14.48c0.068-0.439 0.213-0.827 0.4-1.159 0.187-0.334 0.453-0.615 0.786-0.828 0.32-0.199 0.72-0.293 1.214-0.306 0.306 0.012 0.587 0.066 0.841 0.172 0.267 0.121 0.507 0.281 0.693 0.48 0.185 0.201 0.332 0.441 0.453 0.708 0.119 0.267 0.172 0.56 0.185 0.853h2.388c-0.018-0.625-0.154-1.213-0.385-1.75l0.012 0.031c-0.226-0.527-0.541-0.976-0.932-1.346l-0.002-0.002c-0.404-0.372-0.883-0.671-1.41-0.87l-0.030-0.010c-0.522-0.195-1.126-0.309-1.756-0.309-0.035 0-0.069 0-0.104 0.001l0.005-0c-0.866 0-1.627 0.148-2.267 0.455-0.635 0.297-1.168 0.712-1.594 1.22l-0.006 0.007c-0.427 0.519-0.747 1.12-0.946 1.813s-0.32 1.412-0.32 2.187v0.359c0 0.773 0.107 1.493 0.308 2.187 0.199 0.693 0.519 1.292 0.946 1.799 0.427 0.508 0.96 0.921 1.6 1.214s1.399 0.453 2.267 0.453c0.626 0 1.212-0.107 1.76-0.306 0.548-0.201 1.028-0.48 1.44-0.841 0.403-0.345 0.734-0.761 0.976-1.231l0.011-0.023c0.24-0.48 0.388-0.987 0.4-1.534h-2.388c-0.012 0.281-0.080 0.533-0.199 0.775-0.25 0.473-0.661 0.832-1.159 1.009l-0.015 0.005c-0.238 0.081-0.513 0.13-0.798 0.133h-0.002c-0.48-0.014-0.88-0.107-1.188-0.308-0.327-0.209-0.592-0.487-0.78-0.815l-0.006-0.011c-0.192-0.339-0.332-0.734-0.398-1.154l-0.002-0.020c-0.065-0.399-0.104-0.861-0.107-1.331v-0.363c0-0.466 0.039-0.907 0.107-1.346zM16 2.667c-7.36 0-13.333 5.973-13.333 13.333s5.973 13.333 13.333 13.333c7.36 0 13.333-5.973 13.333-13.333s-5.973-13.333-13.333-13.333zM16 26.667c-5.881 0-10.667-4.788-10.667-10.667 0-5.881 4.786-10.667 10.667-10.667 5.879 0 10.667 4.786 10.667 10.667 0 5.879-4.788 10.667-10.667 10.667z"></path>
</symbol>
<symbol id="icon-edit-icon" viewBox="0 0 32 32">
<path fill="#fff" style="fill: var(--color2, #fff)" d="M32 29.714h-32v2.971h32v-2.971zM21.927 1.038l-16.526 16.526v7.577h7.582l16.526-16.523-7.584-7.579zM11.87 22.464h-3.79v-3.79l13.847-13.847 3.79 3.79-13.847 13.847z"></path>
</symbol>
<symbol id="icon-elem-left" viewBox="0 0 32 32">
<path fill="#fff" style="fill: var(--color2, #fff)" d="M0 16c0 8.837 7.163 16 16 16s16-7.163 16-16c0-8.837-7.163-16-16-16s-16 7.163-16 16z"></path>
<path fill="#000" style="fill: var(--color3, #000)" d="M18.729 12.327l-1.129-1.127-4.8 4.8 4.8 4.8 1.129-1.129-3.664-3.671 3.664-3.673z"></path>
</symbol>
<symbol id="icon-elem-right" viewBox="0 0 32 32">
<path fill="#fff" style="fill: var(--color2, #fff)" d="M32 16c0 8.837-7.163 16-16 16s-16-7.163-16-16c0-8.837 7.163-16 16-16s16 7.163 16 16z"></path>
<path fill="#000" style="fill: var(--color3, #000)" d="M13.272 12.328l1.128-1.128 4.8 4.8-4.8 4.8-1.128-1.128 3.664-3.672-3.664-3.672z"></path>
</symbol>
<symbol id="icon-favorite-icon" viewBox="0 0 32 32">
<path fill="#fff" style="fill: var(--color2, #fff)" d="M16 30.22c-0.456 0-0.895-0.165-1.237-0.465-1.293-1.131-2.539-2.193-3.639-3.13l-0.006-0.005c-3.224-2.747-6.008-5.12-7.945-7.457-2.165-2.613-3.174-5.090-3.174-7.796 0-2.629 0.902-5.055 2.539-6.831 1.656-1.797 3.929-2.786 6.401-2.786 1.847 0 3.539 0.584 5.028 1.736 0.751 0.581 1.433 1.293 2.033 2.123 0.6-0.83 1.281-1.541 2.033-2.123 1.489-1.152 3.181-1.736 5.028-1.736 2.471 0 4.744 0.99 6.401 2.786 1.637 1.776 2.538 4.201 2.538 6.831 0 2.706-1.008 5.184-3.174 7.796-1.937 2.337-4.721 4.71-7.944 7.457-1.102 0.939-2.35 2.003-3.645 3.136-0.342 0.299-0.782 0.464-1.237 0.464zM8.939 3.624c-1.942 0-3.725 0.775-5.023 2.182-1.317 1.428-2.042 3.403-2.042 5.56 0 2.276 0.846 4.312 2.743 6.6 1.833 2.212 4.56 4.536 7.717 7.227l0.006 0.005c1.104 0.941 2.355 2.007 3.657 3.146 1.31-1.141 2.563-2.209 3.669-3.151 3.157-2.691 5.883-5.014 7.717-7.226 1.896-2.289 2.742-4.324 2.742-6.6 0-2.157-0.725-4.132-2.042-5.56-1.297-1.407-3.081-2.182-5.023-2.182-1.422 0-2.728 0.452-3.881 1.344-1.028 0.795-1.743 1.8-2.163 2.503-0.216 0.362-0.596 0.577-1.016 0.577s-0.801-0.216-1.016-0.577c-0.419-0.703-1.135-1.708-2.163-2.503-1.153-0.892-2.459-1.344-3.881-1.344z"></path>
</symbol>
<symbol id="icon-fullscreen-icon" viewBox="0 0 32 32">
<path fill="#fff" style="fill: var(--color2, #fff)" d="M9.333 18.666h-2.667v6.667h6.667v-2.667h-4v-4zM6.667 13.333h2.667v-4h4v-2.667h-6.667v6.667zM22.667 22.666h-4v2.667h6.667v-6.667h-2.667v4zM18.667 6.666v2.667h4v4h2.667v-6.667h-6.667z"></path>
</symbol>
<symbol id="icon-google-icon" viewBox="0 0 32 32">
<path fill="#2196f3" style="fill: var(--color4, #2196f3)" d="M31.742 13.038c0.142 0 0.258 0.116 0.258 0.258v2.704c-0.002 8.837-7.166 16-16.004 16-0.038 0-0.076-0-0.114-0l0.006 0c-8.784-0.042-15.888-7.173-15.888-15.963 0-0.026 0-0.051 0-0.077v0.004c0.018-8.823 7.175-15.968 16-15.968 4.327 0 8.253 1.718 11.133 4.509l-0.004-0.004c0.103 0.1 0.107 0.267 0.004 0.368l-3.826 3.826c-0.046 0.047-0.111 0.075-0.181 0.075-0.068 0-0.13-0.027-0.176-0.070l0 0c-1.799-1.719-4.242-2.777-6.932-2.777-0.006 0-0.012 0-0.018 0h0.001c-0.009-0-0.020-0-0.030-0-5.535 0-10.024 4.476-10.046 10.005v0.002c-0 0.023-0 0.051-0 0.078 0 5.565 4.511 10.076 10.076 10.076 4.511 0 8.33-2.965 9.615-7.052l0.019-0.071h-9.376c-0.142 0-0.258-0.115-0.258-0.258v0-5.406c0-0.142 0.116-0.258 0.258-0.258h15.484z"></path>
<path fill="#1e88e5" style="fill: var(--color5, #1e88e5)" d="M31.742 13.038h-1.929c0.142 0 0.258 0.116 0.258 0.258v2.704c-0.003 8.496-6.625 15.444-14.989 15.969l-0.046 0.002c0.287 0.018 0.622 0.029 0.96 0.029 8.837 0 16.002-7.163 16.004-16v-2.704c0 0 0 0 0 0 0-0.142-0.115-0.258-0.258-0.258-0.001 0-0.001 0-0.002 0h0z"></path>
<path fill="#f44336" style="fill: var(--color6, #f44336)" d="M6.848 11.78l-4.86-3.511c2.779-4.966 8.007-8.268 14.006-8.268 0.002 0 0.005 0 0.007 0h-0c4.324 0 8.245 1.716 11.125 4.501 0.105 0.1 0.107 0.267 0.005 0.368l-3.826 3.826c-0.046 0.047-0.111 0.076-0.182 0.076-0.069 0-0.131-0.027-0.177-0.071l0 0c-1.804-1.72-4.253-2.779-6.949-2.779-4.035 0-7.516 2.371-9.125 5.797l-0.026 0.062z"></path>
<path fill="#e53935" style="fill: var(--color7, #e53935)" d="M5.445 10.766l1.403 1.013c1.49-3.172 4.496-5.412 8.059-5.797l0.045-0.004 0.082-0.009c-0.298-0.031-0.643-0.049-0.992-0.049-3.626 0-6.804 1.921-8.57 4.802l-0.025 0.044zM25.195 4.501c0.103 0.1 0.107 0.267 0.004 0.368l-3.104 3.106c0.297 0.226 0.581 0.468 0.853 0.725 0.046 0.043 0.107 0.069 0.175 0.069 0.070 0 0.134-0.028 0.181-0.075v0l3.828-3.826c0.046-0.047 0.075-0.111 0.075-0.181 0-0.073-0.031-0.14-0.080-0.187l-0-0c-2.868-2.785-6.786-4.502-11.106-4.502-0.347 0-0.69 0.011-1.031 0.033l0.047-0.002c3.971 0.242 7.513 1.902 10.164 4.475l-0.004-0.004z"></path>
<path fill="#4caf50" style="fill: var(--color8, #4caf50)" d="M27.737 26.875c-2.924 3.156-7.090 5.125-11.717 5.125-0.007 0-0.014 0-0.021 0h0.001c-0.002 0-0.003 0-0.005 0-6.228 0-11.625-3.559-14.268-8.754l-0.042-0.091 4.962-3.399c1.532 3.736 5.14 6.319 9.352 6.319 2.662 0 5.083-1.032 6.885-2.717l-0.006 0.005 4.859 3.511z"></path>
<path fill="#43a047" style="fill: var(--color9, #43a047)" d="M6.649 19.756l-1.465 1.003c1.734 3.189 5.059 5.318 8.881 5.318 0.341 0 0.678-0.017 1.010-0.050l-0.042 0.003c-3.815-0.38-6.975-2.835-8.361-6.207l-0.024-0.067zM16 32c0.006 0 0.013 0 0.020 0 4.627 0 8.793-1.969 11.707-5.115l0.009-0.010-1.191-0.86c-2.756 3.419-6.844 5.668-11.464 5.953l-0.045 0.002c0.32 0.020 0.64 0.030 0.964 0.030z"></path>
<path fill="#ffc107" style="fill: var(--color10, #ffc107)" d="M5.924 16c0 1.328 0.258 2.596 0.724 3.756l-4.958 3.399c-1.065-2.079-1.689-4.535-1.689-7.138 0-0.006 0-0.013 0-0.019v0.001c0-2.804 0.722-5.44 1.988-7.732l4.86 3.511c-0.584 1.234-0.924 2.681-0.924 4.207 0 0.005 0 0.009 0 0.014v-0.001z"></path>
<path fill="#ffb300" style="fill: var(--color11, #ffb300)" d="M5.184 20.759l1.463-1.003c-0.458-1.108-0.724-2.395-0.724-3.744 0-0.005 0-0.009 0-0.014v0.001c0-1.508 0.331-2.937 0.924-4.22l-1.404-1.013c-0.904 1.473-1.443 3.255-1.451 5.162v0.002c-0 0.026-0 0.056-0 0.086 0 1.737 0.441 3.37 1.218 4.795l-0.026-0.053z"></path>
</symbol>
<symbol id="icon-love-icon" viewBox="0 0 32 32">
<path fill="#ff6b09" style="fill: var(--color12, #ff6b09)" d="M16 30.72l-2.24-2.24c-8.32-7.36-13.76-12.32-13.76-18.4 0-4.96 3.84-8.8 8.8-8.8 2.72 0 5.44 1.28 7.2 3.36 1.76-2.080 4.48-3.36 7.2-3.36 4.96 0 8.8 3.84 8.8 8.8 0 6.080-5.44 11.040-13.76 18.4l-2.24 2.24z"></path>
</symbol>
<symbol id="icon-menu-burger" viewBox="0 0 32 32">
<path d="M4 24h24v-2.667h-24v2.667zM4 17.333h24v-2.666h-24v2.666zM4 8v2.667h24v-2.667h-24z"></path>
</symbol>
<symbol id="icon-my-account" viewBox="0 0 32 32">
<path d="M0 24.154l16-15.786 16 15.786h-32z"></path>
</symbol>
<symbol id="icon-search_icon" viewBox="0 0 32 32">
<path d="M20.667 18.667h-1.053l-0.373-0.36c1.301-1.502 2.093-3.475 2.093-5.634 0-0.002 0-0.004 0-0.006v0c0-4.786-3.88-8.667-8.667-8.667s-8.667 3.88-8.667 8.667c0 4.786 3.88 8.667 8.667 8.667v0c2.147 0 4.12-0.787 5.64-2.093l0.36 0.373v1.053l6.667 6.653 1.987-1.987-6.653-6.667zM12.667 18.667c-3.32 0-6-2.68-6-6s2.68-6 6-6 6 2.68 6 6-2.68 6-6 6z"></path>
</symbol>
<symbol id="icon-share-icon" viewBox="0 0 32 32">
<path fill="#878686" style="fill: var(--color13, #878686)" d="M25.436 21.334c-1.624 0-3.080 0.73-4.058 1.878l-9.632-5.956c0.095-0.377 0.15-0.81 0.15-1.256s-0.055-0.879-0.158-1.293l0.008 0.037 9.632-5.956c0.982 1.153 2.435 1.88 4.058 1.88v0c2.945-0.003 5.331-2.389 5.334-5.334v-0c-0.003-2.945-2.389-5.331-5.334-5.334h-0c-2.945 0.005-5.33 2.394-5.33 5.34 0 0.444 0.054 0.875 0.156 1.287l-0.008-0.037-9.634 5.954c-0.982-1.152-2.435-1.878-4.057-1.878-0 0-0 0-0.001 0h0c-2.944 0.005-5.329 2.39-5.332 5.334v0c0.003 2.945 2.389 5.331 5.334 5.334h0c1.624 0 3.080-0.73 4.058-1.88l9.632 5.956c-0.094 0.375-0.148 0.806-0.148 1.25 0 2.946 2.385 5.335 5.33 5.34h0.001c2.945-0.003 5.331-2.389 5.334-5.334v-0c-0.005-2.944-2.39-5.329-5.334-5.332h-0zM25.436 2.462c1.584 0 2.872 1.288 2.872 2.872 0 1.582-1.288 2.872-2.872 2.872-1.585-0.002-2.87-1.287-2.872-2.872v-0c0-1.584 1.288-2.872 2.872-2.872zM6.564 18.872c-1.585-0.002-2.87-1.287-2.872-2.872v-0c0-1.584 1.288-2.872 2.872-2.872s2.872 1.288 2.872 2.872c0 1.584-1.288 2.872-2.872 2.872zM25.436 29.538c-1.585-0.002-2.87-1.287-2.872-2.872v-0c0-1.582 1.288-2.872 2.872-2.872s2.872 1.29 2.872 2.872c0 1.584-1.288 2.872-2.872 2.872z"></path>
</symbol>
<symbol id="icon-subtract" viewBox="0 0 32 32">
<path d="M3.235 21.654v7.11h25.53v-25.53h-25.53v7.112h-2.915v-6.792c0-1.787 1.448-3.235 3.235-3.235h24.89c1.787 0 3.235 1.448 3.235 3.235v24.89c0 1.787-1.448 3.235-3.235 3.235v0h-24.89c-1.787 0-3.235-1.448-3.235-3.235v0-6.79h2.915zM17.963 14.542l-4.915-4.915 2.064-2.064 8.434 8.437-8.437 8.437-2.062-2.064 4.915-4.915h-17.642v-2.914h17.643z"></path>
</symbol>
<symbol id="icon-user-profile" viewBox="0 0 32 32">
<path d="M29.474 32h-3.242c0-5.47-4.589-9.918-10.232-9.918s-10.23 4.45-10.23 9.92h-3.242c0-7.261 6.045-13.163 13.472-13.163 7.429 0 13.474 5.902 13.474 13.162zM16 17.786c-4.907-0.008-8.883-3.985-8.89-8.892v-0.001c0.005-4.909 3.982-8.887 8.891-8.893h0c4.91 0.005 8.889 3.983 8.894 8.892v0.001c-0.005 4.91-3.985 8.889-8.896 8.893h-0zM16 3.242c-3.119 0.005-5.645 2.532-5.648 5.651v0c0.004 3.118 2.53 5.645 5.648 5.65h0c3.12-0.002 5.649-2.53 5.653-5.649v-0c-0.005-3.119-2.532-5.646-5.651-5.65h-0z"></path>
</symbol>
<symbol id="icon-full-screen" viewBox="0 0 12 12">
<path d="M1.83329 7.6665H0.166626V11.8332H4.33329V10.1665H1.83329V7.6665ZM0.166626 4.33317H1.83329V1.83317H4.33329V0.166504H0.166626V4.33317ZM10.1666 10.1665H7.66663V11.8332H11.8333V7.6665H10.1666V10.1665ZM7.66663 0.166504V1.83317H10.1666V4.33317H11.8333V0.166504H7.66663Z" fill="white"/></path>
</symbol>
</defs>
</svg>
