<svg width="18" height="18" fill="none" xmlns="http://www.w3.org/2000/svg"><path d="M7.56 8.145c.038-.247.12-.465.225-.652.105-.188.255-.346.442-.466.18-.112.405-.165.683-.172.172.007.33.037.473.097.15.068.285.158.39.27.104.113.187.248.255.398.067.15.097.315.104.48h1.343a2.685 2.685 0 00-.21-.967 2.25 2.25 0 00-.525-.758 2.45 2.45 0 00-.81-.495 2.897 2.897 0 00-1.043-.173c-.487 0-.915.083-1.275.256a2.58 2.58 0 00-.9.69c-.24.292-.42.63-.532 1.02-.112.39-.18.794-.18 1.23v.202c0 .435.06.84.173 1.23.112.39.292.727.532 1.012.24.286.54.518.9.683.36.165.787.255 1.275.255.352 0 .682-.06.99-.172.308-.113.578-.27.81-.473a2.29 2.29 0 00.555-.705c.135-.27.218-.555.225-.863h-1.343c-.007.158-.045.3-.112.436a1.181 1.181 0 01-.66.57 1.49 1.49 0 01-.45.075c-.27-.008-.495-.06-.668-.173a1.312 1.312 0 01-.442-.465 1.96 1.96 0 01-.225-.66 5.055 5.055 0 01-.06-.75v-.203c0-.262.022-.51.06-.757zM9 1.5C4.86 1.5 1.5 4.86 1.5 9c0 4.14 3.36 7.5 7.5 7.5 4.14 0 7.5-3.36 7.5-7.5 0-4.14-3.36-7.5-7.5-7.5zM9 15c-3.308 0-6-2.693-6-6 0-3.308 2.692-6 6-6 3.307 0 6 2.692 6 6 0 3.307-2.693 6-6 6z" fill="#000"/></svg>