<svg width="16" height="16" fill="none" xmlns="http://www.w3.org/2000/svg"><path d="M12.718 10.667c-.812 0-1.54.365-2.029.939L5.873 8.628a2.663 2.663 0 000-1.256l4.816-2.978a2.66 2.66 0 002.029.94 2.67 2.67 0 002.667-2.667A2.67 2.67 0 0012.718 0a2.67 2.67 0 00-2.591 3.295L5.31 6.272a2.661 2.661 0 00-2.029-.939A2.67 2.67 0 00.615 8a2.67 2.67 0 002.667 2.667c.812 0 1.54-.365 2.029-.94l4.816 2.978A2.67 2.67 0 0012.718 16a2.67 2.67 0 002.667-2.667 2.67 2.67 0 00-2.667-2.666zm0-9.436c.792 0 1.436.644 1.436 1.436 0 .791-.644 1.436-1.436 1.436a1.438 1.438 0 01-1.436-1.436c0-.792.644-1.436 1.436-1.436zM3.282 9.436A1.438 1.438 0 011.846 8c0-.792.644-1.436 1.436-1.436.792 0 1.436.644 1.436 1.436 0 .792-.644 1.436-1.436 1.436zm9.436 5.333a1.438 1.438 0 01-1.436-1.436c0-.791.644-1.436 1.436-1.436.792 0 1.436.645 1.436 1.436 0 .792-.644 1.436-1.436 1.436z" fill="#878686"/></svg>